<?xml version="1.0" encoding="UTF-8" standalone="no"?>
<!DOCTYPE svg PUBLIC "-//W3C//DTD SVG 1.1//EN"
 "http://www.w3.org/Graphics/SVG/1.1/DTD/svg11.dtd">
<!-- Generated by graphviz version 14.1.2 (20260124.0452)
 -->
<!-- Title: G Pages: 1 -->
<svg width="654pt" height="657pt"
 viewBox="0.00 0.00 654.00 657.00" xmlns="http://www.w3.org/2000/svg" xmlns:xlink="http://www.w3.org/1999/xlink">
<g id="graph0" class="graph" transform="scale(1 1) rotate(0) translate(4 653)">
<title>G</title><style>.edge>path:hover{stroke-width:8}</style>
<polygon fill="white" stroke="none" points="-4,4 -4,-653 650.08,-653 650.08,4 -4,4"/>
<!-- app_py -->
<g id="node1" class="node">
<title>app_py</title><style>.edge>path:hover{stroke-width:8}</style>
<ellipse fill="#995252" stroke="black" cx="514.5" cy="-18" rx="27.21" ry="18"/>
<text xml:space="preserve" text-anchor="middle" x="514.5" y="-14.5" font-family="Helvetica,sans-Serif" font-size="10.00" fill="#ffffff">app.py</text>
</g>
<!-- db -->
<g id="node2" class="node">
<title>db</title><style>.edge>path:hover{stroke-width:8}</style>
<ellipse fill="#bfc040" stroke="black" cx="606.5" cy="-199" rx="27" ry="18"/>
<text xml:space="preserve" text-anchor="middle" x="606.5" y="-195.5" font-family="Helvetica,sans-Serif" font-size="10.00" fill="#000000">db</text>
</g>
<!-- load_data -->
<g id="node14" class="node">
<title>load_data</title><style>.edge>path:hover{stroke-width:8}</style>
<ellipse fill="#46a4a4" stroke="black" cx="605.5" cy="-127" rx="34.88" ry="18"/>
<text xml:space="preserve" text-anchor="middle" x="605.5" y="-123.5" font-family="Helvetica,sans-Serif" font-size="10.00" fill="#000000">load_data</text>
</g>
<!-- db&#45;&gt;load_data -->
<g id="edge1" class="edge">
<title>db&#45;&gt;load_data</title><style>.edge>path:hover{stroke-width:8}</style>
<path fill="none" stroke="black" d="M606.25,-180.7C606.15,-173.41 606.02,-164.73 605.91,-156.54"/>
<polygon fill="#bfc040" stroke="black" points="609.41,-156.57 605.77,-146.62 602.41,-156.67 609.41,-156.57"/>
</g>
<!-- query_data -->
<g id="node17" class="node">
<title>query_data</title><style>.edge>path:hover{stroke-width:8}</style>
<ellipse fill="#a446a4" stroke="black" cx="514.5" cy="-127" rx="38.49" ry="18"/>
<text xml:space="preserve" text-anchor="middle" x="514.5" y="-123.5" font-family="Helvetica,sans-Serif" font-size="10.00" fill="#ffffff">query_data</text>
</g>
<!-- db&#45;&gt;query_data -->
<g id="edge2" class="edge">
<title>db&#45;&gt;query_data</title><style>.edge>path:hover{stroke-width:8}</style>
<path fill="none" stroke="black" d="M589.2,-184.83C576.18,-174.93 558.06,-161.14 542.92,-149.62"/>
<polygon fill="#bfc040" stroke="black" points="545.24,-146.99 535.16,-143.72 541,-152.56 545.24,-146.99"/>
</g>
<!-- flask -->
<g id="node3" class="node">
<title>flask</title><style>.edge>path:hover{stroke-width:8}</style>
<polygon fill="blue" stroke="black" points="337.5,-145 283.5,-145 283.5,-109 337.5,-109 337.5,-145"/>
<text xml:space="preserve" text-anchor="middle" x="310.5" y="-123.5" font-family="Helvetica,sans-Serif" font-size="10.00" fill="white">flask</text>
</g>
<!-- flask&#45;&gt;app_py -->
<g id="edge3" class="edge">
<title>flask&#45;&gt;app_py</title><style>.edge>path:hover{stroke-width:8}</style>
<path fill="none" stroke="black" d="M337.92,-124.21C391.07,-119.98 503.88,-107.06 514.5,-73"/>
<path fill="none" stroke="black" d="M514.5,-72C516.93,-64.21 517.68,-55.46 517.61,-47.34"/>
<polygon fill="blue" stroke="black" points="521.12,-47.42 517.12,-37.61 514.13,-47.77 521.12,-47.42"/>
</g>
<!-- flask_app -->
<g id="node4" class="node">
<title>flask_app</title><style>.edge>path:hover{stroke-width:8}</style>
<polygon fill="blue" stroke="black" points="259.38,-577 203.62,-577 203.62,-541 259.38,-541 259.38,-577"/>
<text xml:space="preserve" text-anchor="middle" x="231.5" y="-555.5" font-family="Helvetica,sans-Serif" font-size="10.00" fill="white">flask.app</text>
</g>
<!-- flask_app&#45;&gt;flask -->
<g id="edge4" class="edge">
<title>flask_app&#45;&gt;flask</title><style>.edge>path:hover{stroke-width:8}</style>
<path fill="none" stroke="black" d="M239.82,-540.59C259.38,-498.56 307.92,-387.68 324.5,-289 327.15,-273.22 326.56,-268.87 324.5,-253 321.36,-228.84 313.63,-224.16 310.5,-200"/>
</g>
<!-- flask_ctx -->
<g id="node7" class="node">
<title>flask_ctx</title><style>.edge>path:hover{stroke-width:8}</style>
<polygon fill="blue" stroke="black" points="418.5,-505 364.5,-505 364.5,-469 418.5,-469 418.5,-505"/>
<text xml:space="preserve" text-anchor="middle" x="391.5" y="-483.5" font-family="Helvetica,sans-Serif" font-size="10.00" fill="white">flask.ctx</text>
</g>
<!-- flask_app&#45;&gt;flask_ctx -->
<g id="edge5" class="edge">
<title>flask_app&#45;&gt;flask_ctx</title><style>.edge>path:hover{stroke-width:8}</style>
<path fill="none" stroke="black" d="M269.94,-541.18C295.35,-530.07 328.51,-515.56 353.78,-504.5"/>
<polygon fill="blue" stroke="black" points="268.88,-537.83 261.12,-545.04 271.69,-544.24 268.88,-537.83"/>
<polygon fill="blue" stroke="black" points="354.93,-507.82 362.69,-500.6 352.13,-501.4 354.93,-507.82"/>
</g>
<!-- flask_globals -->
<g id="node8" class="node">
<title>flask_globals</title><style>.edge>path:hover{stroke-width:8}</style>
<polygon fill="blue" stroke="black" points="228.88,-433 158.12,-433 158.12,-397 228.88,-397 228.88,-433"/>
<text xml:space="preserve" text-anchor="middle" x="193.5" y="-411.5" font-family="Helvetica,sans-Serif" font-size="10.00" fill="white">flask.globals</text>
</g>
<!-- flask_app&#45;&gt;flask_globals -->
<g id="edge6" class="edge">
<title>flask_app&#45;&gt;flask_globals</title><style>.edge>path:hover{stroke-width:8}</style>
<path fill="none" stroke="black" d="M223.9,-529.6C217.24,-504.7 207.61,-468.71 200.98,-443.94"/>
<polygon fill="blue" stroke="black" points="220.48,-530.37 226.45,-539.13 227.25,-528.56 220.48,-530.37"/>
<polygon fill="blue" stroke="black" points="204.44,-443.33 198.47,-434.57 197.67,-445.14 204.44,-443.33"/>
</g>
<!-- flask_templating -->
<g id="node12" class="node">
<title>flask_templating</title><style>.edge>path:hover{stroke-width:8}</style>
<polygon fill="blue" stroke="black" points="61,-217 0,-217 0,-181 61,-181 61,-217"/>
<text xml:space="preserve" text-anchor="middle" x="30.5" y="-201.5" font-family="Helvetica,sans-Serif" font-size="10.00" fill="white">flask.</text>
<text xml:space="preserve" text-anchor="middle" x="30.5" y="-189.5" font-family="Helvetica,sans-Serif" font-size="10.00" fill="white">templating</text>
</g>
<!-- flask_app&#45;&gt;flask_templating -->
<g id="edge7" class="edge">
<title>flask_app&#45;&gt;flask_templating</title><style>.edge>path:hover{stroke-width:8}</style>
<path fill="none" stroke="black" d="M197.39,-533.58C186.85,-525.18 175.62,-515.27 166.5,-505 91.03,-419.98 61.2,-398.17 29.5,-289 23.83,-269.47 24.25,-246.49 26,-228.78"/>
<polygon fill="blue" stroke="black" points="195.16,-536.28 205.21,-539.63 199.44,-530.74 195.16,-536.28"/>
<polygon fill="blue" stroke="black" points="29.47,-229.31 27.19,-218.97 22.52,-228.47 29.47,-229.31"/>
</g>
<!-- flask_blueprints -->
<g id="node5" class="node">
<title>flask_blueprints</title><style>.edge>path:hover{stroke-width:8}</style>
<polygon fill="blue" stroke="black" points="282.5,-217 224.5,-217 224.5,-181 282.5,-181 282.5,-217"/>
<text xml:space="preserve" text-anchor="middle" x="253.5" y="-201.5" font-family="Helvetica,sans-Serif" font-size="10.00" fill="white">flask.</text>
<text xml:space="preserve" text-anchor="middle" x="253.5" y="-189.5" font-family="Helvetica,sans-Serif" font-size="10.00" fill="white">blueprints</text>
</g>
<!-- flask_blueprints&#45;&gt;flask -->
<g id="edge8" class="edge">
<title>flask_blueprints&#45;&gt;flask</title><style>.edge>path:hover{stroke-width:8}</style>
<path fill="none" stroke="black" d="M267.59,-180.7C274.15,-172.64 282.09,-162.89 289.34,-153.98"/>
<polygon fill="blue" stroke="black" points="292.02,-156.24 295.62,-146.28 286.59,-151.82 292.02,-156.24"/>
</g>
<!-- flask_config -->
<g id="node6" class="node">
<title>flask_config</title><style>.edge>path:hover{stroke-width:8}</style>
<ellipse fill="#53b653" stroke="black" cx="378.5" cy="-199" rx="39.84" ry="18"/>
<text xml:space="preserve" text-anchor="middle" x="378.5" y="-195.5" font-family="Helvetica,sans-Serif" font-size="10.00" fill="#000000">flask.config</text>
</g>
<!-- flask_config&#45;&gt;flask -->
<g id="edge9" class="edge">
<title>flask_config&#45;&gt;flask</title><style>.edge>path:hover{stroke-width:8}</style>
<path fill="none" stroke="black" d="M363.07,-182.12C354.83,-173.63 344.48,-162.98 335.15,-153.38"/>
<polygon fill="#53b653" stroke="black" points="337.83,-151.11 328.35,-146.38 332.81,-155.99 337.83,-151.11"/>
</g>
<!-- flask_ctx&#45;&gt;flask -->
<g id="edge10" class="edge">
<title>flask_ctx&#45;&gt;flask</title><style>.edge>path:hover{stroke-width:8}</style>
<path fill="none" stroke="black" d="M446.5,-414C455.92,-362.91 457.41,-223.48 427.5,-181 409.3,-155.15 375.39,-141.68 348.74,-134.8"/>
<polygon fill="blue" stroke="black" points="349.84,-131.47 339.3,-132.59 348.24,-138.28 349.84,-131.47"/>
<path fill="none" stroke="black" d="M412.51,-468.63C425.97,-455.79 441.78,-436.96 446.5,-416"/>
</g>
<!-- flask_ctx&#45;&gt;flask_globals -->
<g id="edge12" class="edge">
<title>flask_ctx&#45;&gt;flask_globals</title><style>.edge>path:hover{stroke-width:8}</style>
<path fill="none" stroke="black" d="M353.88,-472.7C321.56,-461.27 274.82,-444.75 240.13,-432.49"/>
<polygon fill="blue" stroke="black" points="352.36,-475.88 362.96,-475.91 354.7,-469.28 352.36,-475.88"/>
<polygon fill="blue" stroke="black" points="241.35,-429.2 230.75,-429.17 239.01,-435.8 241.35,-429.2"/>
</g>
<!-- flask_globals&#45;&gt;flask -->
<g id="edge13" class="edge">
<title>flask_globals&#45;&gt;flask</title><style>.edge>path:hover{stroke-width:8}</style>
<path fill="none" stroke="black" d="M158.5,-342C150.38,-311.51 141.2,-226.39 158.5,-200"/>
</g>
<!-- flask_globals&#45;&gt;flask_blueprints -->
<g id="edge15" class="edge">
<title>flask_globals&#45;&gt;flask_blueprints</title><style>.edge>path:hover{stroke-width:8}</style>
<path fill="none" stroke="black" d="M158.5,-342C146.29,-295.22 229.02,-330.69 253.5,-289 264.09,-270.97 263.48,-247.12 260.56,-228.65"/>
<polygon fill="blue" stroke="black" points="264.01,-228.05 258.68,-218.89 257.13,-229.38 264.01,-228.05"/>
</g>
<!-- flask_helpers -->
<g id="node9" class="node">
<title>flask_helpers</title><style>.edge>path:hover{stroke-width:8}</style>
<polygon fill="blue" stroke="black" points="130.25,-289 58.75,-289 58.75,-253 130.25,-253 130.25,-289"/>
<text xml:space="preserve" text-anchor="middle" x="94.5" y="-267.5" font-family="Helvetica,sans-Serif" font-size="10.00" fill="white">flask.helpers</text>
</g>
<!-- flask_globals&#45;&gt;flask_helpers -->
<g id="edge17" class="edge">
<title>flask_globals&#45;&gt;flask_helpers</title><style>.edge>path:hover{stroke-width:8}</style>
<path fill="none" stroke="black" d="M158.5,-342C153.86,-324.23 141.11,-308.65 128.2,-296.73"/>
<polygon fill="blue" stroke="black" points="130.77,-294.33 120.92,-290.43 126.19,-299.62 130.77,-294.33"/>
</g>
<!-- flask_json -->
<g id="node10" class="node">
<title>flask_json</title><style>.edge>path:hover{stroke-width:8}</style>
<polygon fill="blue" stroke="black" points="244.5,-289 186.5,-289 186.5,-253 244.5,-253 244.5,-289"/>
<text xml:space="preserve" text-anchor="middle" x="215.5" y="-267.5" font-family="Helvetica,sans-Serif" font-size="10.00" fill="white">flask.json</text>
</g>
<!-- flask_globals&#45;&gt;flask_json -->
<g id="edge18" class="edge">
<title>flask_globals&#45;&gt;flask_json</title><style>.edge>path:hover{stroke-width:8}</style>
<path fill="none" stroke="black" d="M158.5,-342C153.94,-324.54 165.01,-308.63 178.57,-296.41"/>
<polygon fill="blue" stroke="black" points="180.55,-299.31 186.05,-290.25 176.1,-293.91 180.55,-299.31"/>
</g>
<!-- flask_globals&#45;&gt;flask_templating -->
<g id="edge19" class="edge">
<title>flask_globals&#45;&gt;flask_templating</title><style>.edge>path:hover{stroke-width:8}</style>
<path fill="none" stroke="black" d="M158.5,-342C143.85,-290.16 82.71,-331.41 49.5,-289 36.09,-271.88 31.61,-247.44 30.33,-228.5"/>
<polygon fill="blue" stroke="black" points="33.84,-228.63 29.95,-218.77 26.84,-228.9 33.84,-228.63"/>
<path fill="none" stroke="black" d="M182.32,-396.67C174.12,-382.97 163.57,-363.04 158.5,-344"/>
</g>
<!-- flask_wrappers -->
<g id="node13" class="node">
<title>flask_wrappers</title><style>.edge>path:hover{stroke-width:8}</style>
<polygon fill="blue" stroke="black" points="281.38,-361 201.62,-361 201.62,-325 281.38,-325 281.38,-361"/>
<text xml:space="preserve" text-anchor="middle" x="241.5" y="-339.5" font-family="Helvetica,sans-Serif" font-size="10.00" fill="white">flask.wrappers</text>
</g>
<!-- flask_globals&#45;&gt;flask_wrappers -->
<g id="edge20" class="edge">
<title>flask_globals&#45;&gt;flask_wrappers</title><style>.edge>path:hover{stroke-width:8}</style>
<path fill="none" stroke="black" d="M211.86,-387.23C215.61,-381.75 219.57,-375.98 223.32,-370.51"/>
<polygon fill="blue" stroke="black" points="208.99,-385.22 206.22,-395.45 214.76,-389.18 208.99,-385.22"/>
<polygon fill="blue" stroke="black" points="226.15,-372.58 228.92,-362.35 220.37,-368.62 226.15,-372.58"/>
</g>
<!-- flask_helpers&#45;&gt;flask -->
<g id="edge21" class="edge">
<title>flask_helpers&#45;&gt;flask</title><style>.edge>path:hover{stroke-width:8}</style>
<path fill="none" stroke="black" d="M113.35,-252.63C127.13,-239.23 145.59,-219.69 158.5,-200"/>
<path fill="none" stroke="black" d="M158.5,-198C183.73,-159.53 235.91,-141.87 272.04,-133.99"/>
<polygon fill="blue" stroke="black" points="272.56,-137.46 281.67,-132.06 271.18,-130.59 272.56,-137.46"/>
</g>
<!-- flask_helpers&#45;&gt;flask_app -->
<g id="edge22" class="edge">
<title>flask_helpers&#45;&gt;flask_app</title><style>.edge>path:hover{stroke-width:8}</style>
<path fill="none" stroke="black" d="M98.92,-289.49C106.88,-319.67 125.1,-383.12 149.5,-433 167.12,-469.02 193.33,-507.09 211.36,-531.62"/>
<polygon fill="blue" stroke="black" points="208.38,-533.48 217.16,-539.42 214,-529.3 208.38,-533.48"/>
</g>
<!-- flask_helpers&#45;&gt;flask_blueprints -->
<g id="edge23" class="edge">
<title>flask_helpers&#45;&gt;flask_blueprints</title><style>.edge>path:hover{stroke-width:8}</style>
<path fill="none" stroke="black" d="M130.58,-254.12C155.35,-243.21 188.24,-228.73 213.76,-217.49"/>
<polygon fill="blue" stroke="black" points="215.08,-220.74 222.82,-213.51 212.26,-214.33 215.08,-220.74"/>
</g>
<!-- flask_helpers&#45;&gt;flask_templating -->
<g id="edge24" class="edge">
<title>flask_helpers&#45;&gt;flask_templating</title><style>.edge>path:hover{stroke-width:8}</style>
<path fill="none" stroke="black" d="M78.68,-252.7C71.16,-244.47 62.03,-234.48 53.74,-225.42"/>
<polygon fill="blue" stroke="black" points="56.49,-223.24 47.16,-218.22 51.32,-227.96 56.49,-223.24"/>
</g>
<!-- flask_json&#45;&gt;flask -->
<g id="edge26" class="edge">
<title>flask_json&#45;&gt;flask</title><style>.edge>path:hover{stroke-width:8}</style>
<path fill="none" stroke="black" d="M186.02,-252.93C166.26,-239.21 145.95,-219.13 158.5,-200"/>
</g>
<!-- flask_signals -->
<g id="node11" class="node">
<title>flask_signals</title><style>.edge>path:hover{stroke-width:8}</style>
<ellipse fill="#22e722" stroke="black" cx="231.5" cy="-631" rx="42.54" ry="18"/>
<text xml:space="preserve" text-anchor="middle" x="231.5" y="-627.5" font-family="Helvetica,sans-Serif" font-size="10.00" fill="#000000">flask.signals</text>
</g>
<!-- flask_signals&#45;&gt;flask -->
<g id="edge28" class="edge">
<title>flask_signals&#45;&gt;flask</title><style>.edge>path:hover{stroke-width:8}</style>
<path fill="none" stroke="black" d="M446.5,-558C473.46,-500.94 432.63,-477.57 446.5,-416"/>
</g>
<!-- flask_signals&#45;&gt;flask_app -->
<g id="edge29" class="edge">
<title>flask_signals&#45;&gt;flask_app</title><style>.edge>path:hover{stroke-width:8}</style>
<path fill="none" stroke="black" d="M231.5,-612.7C231.5,-605.41 231.5,-596.73 231.5,-588.54"/>
<polygon fill="#22e722" stroke="black" points="235,-588.62 231.5,-578.62 228,-588.62 235,-588.62"/>
</g>
<!-- flask_signals&#45;&gt;flask_ctx -->
<g id="edge30" class="edge">
<title>flask_signals&#45;&gt;flask_ctx</title><style>.edge>path:hover{stroke-width:8}</style>
<path fill="none" stroke="black" d="M271.18,-623.93C329.01,-614.05 431.24,-592.3 446.5,-560"/>
<path fill="none" stroke="black" d="M446.5,-558C454.5,-541.06 442.6,-524.47 427.84,-511.7"/>
<polygon fill="#22e722" stroke="black" points="430.15,-509.06 420.14,-505.58 425.8,-514.54 430.15,-509.06"/>
</g>
<!-- flask_signals&#45;&gt;flask_helpers -->
<g id="edge31" class="edge">
<title>flask_signals&#45;&gt;flask_helpers</title><style>.edge>path:hover{stroke-width:8}</style>
<path fill="none" stroke="black" d="M30.5,-414C19.93,-371.32 48.61,-325.56 70.94,-297.86"/>
<polygon fill="#22e722" stroke="black" points="73.5,-300.26 77.24,-290.35 68.13,-295.77 73.5,-300.26"/>
</g>
<!-- flask_signals&#45;&gt;flask_templating -->
<g id="edge32" class="edge">
<title>flask_signals&#45;&gt;flask_templating</title><style>.edge>path:hover{stroke-width:8}</style>
<path fill="none" stroke="black" d="M30.5,-414C15.66,-343.86 13.82,-324.38 20.5,-253 21.26,-244.86 22.67,-236.1 24.19,-228.1"/>
<polygon fill="#22e722" stroke="black" points="27.57,-229.05 26.14,-218.55 20.71,-227.65 27.57,-229.05"/>
<path fill="none" stroke="black" d="M203.96,-616.92C148.87,-588.64 30.39,-516.16 30.5,-416"/>
</g>
<!-- flask_templating&#45;&gt;flask -->
<g id="edge33" class="edge">
<title>flask_templating&#45;&gt;flask</title><style>.edge>path:hover{stroke-width:8}</style>
<path fill="none" stroke="black" d="M61.27,-190.31C112.7,-177.45 216.02,-151.62 272.13,-137.59"/>
<polygon fill="blue" stroke="black" points="272.7,-141.06 281.55,-135.24 271,-134.27 272.7,-141.06"/>
</g>
<!-- flask_wrappers&#45;&gt;flask -->
<g id="edge35" class="edge">
<title>flask_wrappers&#45;&gt;flask</title><style>.edge>path:hover{stroke-width:8}</style>
<path fill="none" stroke="black" d="M310.5,-198C308.75,-184.48 308.53,-169.37 308.84,-156.66"/>
<polygon fill="blue" stroke="black" points="312.33,-156.98 309.21,-146.85 305.33,-156.71 312.33,-156.98"/>
<path fill="none" stroke="black" d="M310.5,-270C316.49,-239.47 314.5,-230.85 310.5,-200"/>
</g>
<!-- flask_wrappers&#45;&gt;flask_app -->
<g id="edge36" class="edge">
<title>flask_wrappers&#45;&gt;flask_app</title><style>.edge>path:hover{stroke-width:8}</style>
<path fill="none" stroke="black" d="M240.73,-361.4C239.94,-379.34 238.66,-408.12 237.5,-433 235.97,-466.01 234.14,-503.93 232.9,-529.26"/>
<polygon fill="blue" stroke="black" points="229.42,-528.94 232.43,-539.1 236.41,-529.28 229.42,-528.94"/>
</g>
<!-- flask_wrappers&#45;&gt;flask_blueprints -->
<g id="edge37" class="edge">
<title>flask_wrappers&#45;&gt;flask_blueprints</title><style>.edge>path:hover{stroke-width:8}</style>
<path fill="none" stroke="black" d="M310.5,-270C313.91,-252.59 303.16,-236.89 290.11,-224.79"/>
<polygon fill="blue" stroke="black" points="292.38,-222.13 282.48,-218.36 287.86,-227.48 292.38,-222.13"/>
<path fill="none" stroke="black" d="M270.58,-324.75C287.4,-312.57 306.1,-294.44 310.5,-272"/>
</g>
<!-- flask_wrappers&#45;&gt;flask_ctx -->
<g id="edge38" class="edge">
<title>flask_wrappers&#45;&gt;flask_ctx</title><style>.edge>path:hover{stroke-width:8}</style>
<path fill="none" stroke="black" d="M259.57,-361.11C285.85,-385.99 334.76,-432.29 365.08,-460.99"/>
<polygon fill="blue" stroke="black" points="362.34,-463.21 372.01,-467.55 367.15,-458.13 362.34,-463.21"/>
</g>
<!-- flask_wrappers&#45;&gt;flask_helpers -->
<g id="edge40" class="edge">
<title>flask_wrappers&#45;&gt;flask_helpers</title><style>.edge>path:hover{stroke-width:8}</style>
<path fill="none" stroke="black" d="M194.62,-319.68C177.5,-311.52 158.15,-302.31 141.06,-294.17"/>
<polygon fill="blue" stroke="black" points="192.88,-322.73 203.42,-323.87 195.89,-316.41 192.88,-322.73"/>
<polygon fill="blue" stroke="black" points="142.65,-291.05 132.11,-289.91 139.64,-297.37 142.65,-291.05"/>
</g>
<!-- flask_wrappers&#45;&gt;flask_json -->
<g id="edge41" class="edge">
<title>flask_wrappers&#45;&gt;flask_json</title><style>.edge>path:hover{stroke-width:8}</style>
<path fill="none" stroke="black" d="M231.14,-314.1C229.37,-309.34 227.54,-304.41 225.77,-299.66"/>
<polygon fill="blue" stroke="black" points="227.78,-315.12 234.55,-323.28 234.35,-312.68 227.78,-315.12"/>
<polygon fill="blue" stroke="black" points="229.14,-298.68 222.38,-290.52 222.58,-301.12 229.14,-298.68"/>
</g>
<!-- load_data&#45;&gt;app_py -->
<g id="edge42" class="edge">
<title>load_data&#45;&gt;app_py</title><style>.edge>path:hover{stroke-width:8}</style>
<path fill="none" stroke="black" d="M580.32,-114.35C552.59,-101.11 512.2,-80.37 514.5,-73"/>
</g>
<!-- psycopg -->
<g id="node15" class="node">
<title>psycopg</title><style>.edge>path:hover{stroke-width:8}</style>
<ellipse fill="#2626d9" stroke="black" cx="606.5" cy="-271" rx="31.72" ry="18"/>
<text xml:space="preserve" text-anchor="middle" x="606.5" y="-267.5" font-family="Helvetica,sans-Serif" font-size="10.00" fill="#ffffff">psycopg</text>
</g>
<!-- psycopg&#45;&gt;db -->
<g id="edge43" class="edge">
<title>psycopg&#45;&gt;db</title><style>.edge>path:hover{stroke-width:8}</style>
<path fill="none" stroke="black" d="M606.5,-252.7C606.5,-245.41 606.5,-236.73 606.5,-228.54"/>
<polygon fill="#2626d9" stroke="black" points="610,-228.62 606.5,-218.62 603,-228.62 610,-228.62"/>
</g>
<!-- psycopg&#45;&gt;load_data -->
<g id="edge44" class="edge">
<title>psycopg&#45;&gt;load_data</title><style>.edge>path:hover{stroke-width:8}</style>
<path fill="none" stroke="black" d="M620.62,-254.62C628.75,-244.69 638.18,-231.03 642.5,-217 647.2,-201.71 647.3,-196.26 642.5,-181 639.32,-170.89 633.45,-161.02 627.31,-152.6"/>
<polygon fill="#2626d9" stroke="black" points="630.24,-150.67 621.32,-144.96 624.73,-154.99 630.24,-150.67"/>
</g>
<!-- psycopg&#45;&gt;query_data -->
<g id="edge45" class="edge">
<title>psycopg&#45;&gt;query_data</title><style>.edge>path:hover{stroke-width:8}</style>
<path fill="none" stroke="black" d="M584.61,-257.72C558.68,-242.55 518.38,-216.68 513.5,-200"/>
</g>
<!-- psycopg_sql -->
<g id="node16" class="node">
<title>psycopg_sql</title><style>.edge>path:hover{stroke-width:8}</style>
<ellipse fill="#4747c2" stroke="black" cx="515.5" cy="-271" rx="41.19" ry="18"/>
<text xml:space="preserve" text-anchor="middle" x="515.5" y="-267.5" font-family="Helvetica,sans-Serif" font-size="10.00" fill="#ffffff">psycopg.sql</text>
</g>
<!-- psycopg_sql&#45;&gt;load_data -->
<g id="edge46" class="edge">
<title>psycopg_sql&#45;&gt;load_data</title><style>.edge>path:hover{stroke-width:8}</style>
<path fill="none" stroke="black" d="M525.69,-253.17C536.62,-235.21 554.56,-205.95 570.5,-181 576.22,-172.05 582.59,-162.33 588.31,-153.69"/>
<polygon fill="#4747c2" stroke="black" points="591.19,-155.68 593.81,-145.42 585.36,-151.81 591.19,-155.68"/>
</g>
<!-- psycopg_sql&#45;&gt;query_data -->
<g id="edge47" class="edge">
<title>psycopg_sql&#45;&gt;query_data</title><style>.edge>path:hover{stroke-width:8}</style>
<path fill="none" stroke="black" d="M513.5,-198C509.61,-184.69 509.38,-169.35 510.33,-156.42"/>
<polygon fill="#4747c2" stroke="black" points="513.77,-157.16 511.3,-146.86 506.81,-156.45 513.77,-157.16"/>
<path fill="none" stroke="black" d="M517.41,-252.65C518.43,-238.25 518.59,-217.39 513.5,-200"/>
</g>
<!-- query_data&#45;&gt;app_py -->
<g id="edge48" class="edge">
<title>query_data&#45;&gt;app_py</title><style>.edge>path:hover{stroke-width:8}</style>
<path fill="none" stroke="black" d="M511.95,-108.9C511,-98.32 510.88,-84.59 514.5,-73"/>
</g>
</g>
</svg>
